<?xml version="1.0" encoding="UTF-8"?>
<svg version="1.1" xmlns="http://www.w3.org/2000/svg" width="77" height="50">
<path d="M0 0 C1.5 1.32421875 1.5 1.32421875 3 3 C3 8.52871863 0.58545772 11.13873784 -3 15 C-1.8553125 15.1546875 -1.8553125 15.1546875 -0.6875 15.3125 C2.18416484 16.04711194 3.23042094 16.6716065 5 19 C5 19.66 5 20.32 5 21 C5.66 21.33 6.32 21.66 7 22 C6.67 24.31 6.34 26.62 6 29 C7.98 29 9.96 29 12 29 C12.05411124 26.58303128 12.09372278 24.16728213 12.125 21.75 C12.14175781 21.06808594 12.15851563 20.38617187 12.17578125 19.68359375 C12.21213482 15.9391765 12.07944349 13.17647273 10 10 C10.99 9.34 11.98 8.68 13 8 C13.99 8.66 14.98 9.32 16 10 C16.99 9.34 17.98 8.68 19 8 C19.99 8.66 20.98 9.32 22 10 C21.34 11.32 20.68 12.64 20 14 C19.01 14 18.02 14 17 14 C17 13.34 17 12.68 17 12 C16.34 12 15.68 12 15 12 C15.495 12.99 15.495 12.99 16 14 C16.99 14.33 17.98 14.66 19 15 C19.10854617 17.39706123 19.18753157 19.78915838 19.25 22.1875 C19.28351563 22.86103516 19.31703125 23.53457031 19.3515625 24.22851562 C19.42301429 27.89041975 19.11534178 29.82150622 17.109375 32.92578125 C14.58005775 35.41294322 13.78737716 35.98215576 10.2421875 36.0625 C9.13101563 36.041875 8.01984375 36.02125 6.875 36 C3.11344499 35.96693138 -0.52559625 35.95717192 -4.25 36.5 C-9.63957688 37.21861025 -14.82266264 37.384236 -20.1875 36.4375 C-23.0230621 35.84406338 -23.0230621 35.84406338 -25.9375 36.5 C-29 37 -29 37 -32.4375 36.5 C-36.22056334 35.96904374 -39.2605972 36.31317091 -43 37 C-42.95875 38.093125 -42.9175 39.18625 -42.875 40.3125 C-43 44 -43 44 -45 47 C-47.625 47.1875 -47.625 47.1875 -50 47 C-50.11625936 42.43771459 -50.18727408 37.87581072 -50.25 33.3125 C-50.28351562 32.01892578 -50.31703125 30.72535156 -50.3515625 29.39257812 C-50.36445312 28.14541016 -50.37734375 26.89824219 -50.390625 25.61328125 C-50.41157227 24.46641846 -50.43251953 23.31955566 -50.45410156 22.13793945 C-49.90384899 18.33557585 -48.65728809 16.71874791 -46 14 C-42.82245725 12.41122863 -39.46605757 12.72491607 -36 13 C-32.5796134 14.17013226 -32.08459518 14.87310723 -30 18 C-29.55888435 19.88154883 -29.1890733 21.78062638 -28.875 23.6875 C-28.70742188 24.68136719 -28.53984375 25.67523437 -28.3671875 26.69921875 C-28.24601562 27.45847656 -28.12484375 28.21773437 -28 29 C-27.34 29 -26.68 29 -26 29 C-25.08877472 23.35652914 -24.70225954 17.77002113 -24.4375 12.0625 C-24.39431641 11.18787109 -24.35113281 10.31324219 -24.30664062 9.41210938 C-24.20153099 7.27488005 -24.10036015 5.13745762 -24 3 C-21.625 3.25 -21.625 3.25 -19 4 C-16.90289889 6.83799312 -16.77333258 9.29330767 -16.875 12.75 C-16.89304688 13.54921875 -16.91109375 14.3484375 -16.9296875 15.171875 C-16.95289063 15.77515625 -16.97609375 16.3784375 -17 17 C-10.72690435 11.83794309 -5.3250511 6.12627407 0 0 Z M-42 19 C-43.89488952 20.89488952 -43.18019112 23.57139146 -43.23046875 26.08984375 C-43.1702792 28.2412636 -43.1702792 28.2412636 -41 30 C-40.01 30 -39.02 30 -38 30 C-36.19558808 25.32047386 -36.19558808 25.32047386 -36.875 20.5625 C-37.431875 19.7890625 -37.431875 19.7890625 -38 19 C-39.32 19 -40.64 19 -42 19 Z M-17 19 C-16 21 -16 21 -16 21 Z M-17 22 C-17 24.31 -17 26.62 -17 29 C-16.236875 29.268125 -15.47375 29.53625 -14.6875 29.8125 C-12.12619116 30.94424112 -10.80307062 31.91223401 -9 34 C-8.62875 33.38125 -8.2575 32.7625 -7.875 32.125 C-5.51377094 29.4489404 -3.39868348 28.9063156 0 28 C0.042721 26.33388095 0.04063832 24.66617115 0 23 C-1.18852855 21.58225162 -1.18852855 21.58225162 -4.59765625 21.90234375 C-6.08596867 21.9090178 -7.57426432 21.92097817 -9.0625 21.9375 C-10.20041992 21.94426758 -10.20041992 21.94426758 -11.36132812 21.95117188 C-13.24091871 21.9629932 -15.12046899 21.98092922 -17 22 Z " fill="#C1D9CE" transform="translate(52,1)"/>
<path d="M0 0 C1.5625 1.125 1.5625 1.125 3 3 C3 8.52871863 0.58545772 11.13873784 -3 15 C-1.8553125 15.1546875 -1.8553125 15.1546875 -0.6875 15.3125 C2.18416484 16.04711194 3.23042094 16.6716065 5 19 C5 19.66 5 20.32 5 21 C5.66 21.33 6.32 21.66 7 22 C6.67 24.31 6.34 26.62 6 29 C7.98 29 9.96 29 12 29 C12.05411124 26.58303128 12.09372278 24.16728213 12.125 21.75 C12.14175781 21.06808594 12.15851563 20.38617187 12.17578125 19.68359375 C12.21213482 15.9391765 12.07944349 13.17647273 10 10 C10.99 9.34 11.98 8.68 13 8 C13.99 8.66 14.98 9.32 16 10 C16.99 9.34 17.98 8.68 19 8 C19.99 8.66 20.98 9.32 22 10 C21.34 11.32 20.68 12.64 20 14 C19.01 14 18.02 14 17 14 C17 13.34 17 12.68 17 12 C16.34 12 15.68 12 15 12 C15.33 12.66 15.66 13.32 16 14 C16.99 14.33 17.98 14.66 19 15 C19.10854617 17.39706123 19.18753157 19.78915838 19.25 22.1875 C19.30027344 23.19780273 19.30027344 23.19780273 19.3515625 24.22851562 C19.42301429 27.89041975 19.11534178 29.82150622 17.109375 32.92578125 C14.58005775 35.41294322 13.78737716 35.98215576 10.2421875 36.0625 C9.13101563 36.041875 8.01984375 36.02125 6.875 36 C2.96032102 35.95669603 -0.75888115 36.00468989 -4.625 36.625 C-8 37 -8 37 -11 35 C-6.69230769 29.21538462 -6.69230769 29.21538462 -3.1875 28.125 C-2.465625 28.08375 -1.74375 28.0425 -1 28 C-0.957279 26.33388095 -0.95936168 24.66617115 -1 23 C-2.94090826 21.05909174 -6.47293902 21.60080565 -9.0625 21.4375 C-10.35285156 21.35371094 -11.64320312 21.26992188 -12.97265625 21.18359375 C-14.47119141 21.09271484 -14.47119141 21.09271484 -16 21 C-15.556684 16.21730242 -13.69686285 14.29010974 -10.25 11.0625 C-6.55850771 7.52437917 -3.16569082 4.00987503 0 0 Z " fill="#315551" transform="translate(52,1)"/>
<path d="M0 0 C1.32 0.66 2.64 1.32 4 2 C4.99 1.34 5.98 0.68 7 0 C7.99 0.66 8.98 1.32 10 2 C9.34 3.32 8.68 4.64 8 6 C7.01 6 6.02 6 5 6 C5 5.34 5 4.68 5 4 C4.34 4 3.68 4 3 4 C3.33 4.66 3.66 5.32 4 6 C4.99 6.33 5.98 6.66 7 7 C7.10854617 9.39706123 7.18753157 11.78915838 7.25 14.1875 C7.30027344 15.19780273 7.30027344 15.19780273 7.3515625 16.22851562 C7.42301429 19.89041975 7.11534178 21.82150622 5.109375 24.92578125 C2.20792826 27.77887054 1.54322718 27.99063401 -2.625 28.0625 C-3.73875 28.041875 -4.8525 28.02125 -6 28 C-5.01 27.34 -4.02 26.68 -3 26 C-2.34 26.33 -1.68 26.66 -1 27 C-1.33 26.01 -1.66 25.02 -2 24 C-1.67 23.34 -1.34 22.68 -1 22 C-2.32 21.67 -3.64 21.34 -5 21 C-3.35 21 -1.7 21 0 21 C0.05411124 18.58303128 0.09372278 16.16728213 0.125 13.75 C0.14175781 13.06808594 0.15851563 12.38617188 0.17578125 11.68359375 C0.21213482 7.9391765 0.07944349 5.17647273 -2 2 C-1.34 1.34 -0.68 0.68 0 0 Z " fill="#385A55" transform="translate(64,9)"/>
<path d="M0 0 C1.5625 1.3125 1.5625 1.3125 2.5 3.6875 C2.57700945 6.92189697 1.71900737 7.98347204 -0.4375 10.3125 C-0.4375 9.6525 -0.4375 8.9925 -0.4375 8.3125 C-1.4275 8.3125 -2.4175 8.3125 -3.4375 8.3125 C-3.7675 7.6525 -4.0975 6.9925 -4.4375 6.3125 C-6.7515622 5.58174352 -9.08578869 4.91111742 -11.4375 4.3125 C-11.7675 4.9725 -12.0975 5.6325 -12.4375 6.3125 C-13.4275 6.3125 -14.4175 6.3125 -15.4375 6.3125 C-15.1075 13.2425 -14.7775 20.1725 -14.4375 27.3125 C-12.7875 27.6425 -11.1375 27.9725 -9.4375 28.3125 C-10.4275 30.7875 -10.4275 30.7875 -11.4375 33.3125 C-13.0875 33.3125 -14.7375 33.3125 -16.4375 33.3125 C-16.55375936 28.75021459 -16.62477408 24.18831072 -16.6875 19.625 C-16.72101562 18.33142578 -16.75453125 17.03785156 -16.7890625 15.70507812 C-16.80195313 14.45791016 -16.81484375 13.21074219 -16.828125 11.92578125 C-16.84907227 10.77891846 -16.87001953 9.63205566 -16.89160156 8.45043945 C-16.34134899 4.64807585 -15.09478809 3.03124791 -12.4375 0.3125 C-8.64007014 -1.58621493 -4.00432767 -1.12942575 0 0 Z " fill="#BFD5CB" transform="translate(18.4375,14.6875)"/>
<path d="M0 0 C0 2.97 0 5.94 0 9 C2.475 9.99 2.475 9.99 5 11 C4.01 11.495 4.01 11.495 3 12 C2.67 12.66 2.34 13.32 2 14 C1.34 14.66 0.68 15.32 0 16 C-0.40047444 18.32275177 -0.7397104 20.65739357 -1 23 C-2.66611905 23.042721 -4.33382885 23.04063832 -6 23 C-7 22 -7 22 -7.11352539 19.95874023 C-7.10828857 19.08419189 -7.10305176 18.20964355 -7.09765625 17.30859375 C-7.09443359 16.36435547 -7.09121094 15.42011719 -7.08789062 14.44726562 C-7.07951172 13.45404297 -7.07113281 12.46082031 -7.0625 11.4375 C-7.05798828 10.44041016 -7.05347656 9.44332031 -7.04882812 8.41601562 C-7.03700007 5.94395151 -7.02051849 3.47200482 -7 1 C-3.375 -1.125 -3.375 -1.125 0 0 Z " fill="#B5D2C5" transform="translate(10,20)"/>
<path d="M0 0 C1.5 1.32421875 1.5 1.32421875 3 3 C3 8.52871863 0.58545772 11.13873784 -3 15 C-2.01 15.33 -1.02 15.66 0 16 C-0.639375 16.12375 -1.27875 16.2475 -1.9375 16.375 C-2.618125 16.58125 -3.29875 16.7875 -4 17 C-4.33 17.66 -4.66 18.32 -5 19 C-8 18 -8 18 -10 15 C-11.65 15.66 -13.3 16.32 -15 17 C-10.10995345 11.23225279 -5.07515796 5.60523001 0 0 Z " fill="#43645F" transform="translate(52,1)"/>
<path d="M0 0 C0.33 0 0.66 0 1 0 C1 2.97 1 5.94 1 9 C1.66 9.33 2.32 9.66 3 10 C2.01 11.485 2.01 11.485 1 13 C5.95 13 10.9 13 16 13 C16 13.33 16 13.66 16 14 C11.05 14 6.1 14 1 14 C1 16.31 1 18.62 1 21 C1.969375 21.268125 2.93875 21.53625 3.9375 21.8125 C4.948125 22.204375 5.95875 22.59625 7 23 C7.33 23.99 7.66 24.98 8 26 C7.67 26.66 7.34 27.32 7 28 C4.0625 28.75 4.0625 28.75 1 29 C0.34 28.34 -0.32 27.68 -1 27 C-0.34 27 0.32 27 1 27 C0.67 25.35 0.34 23.7 0 22 C-0.66 22 -1.32 22 -2 22 C-2.33 21.01 -2.66 20.02 -3 19 C-2.01 18.67 -1.02 18.34 0 18 C0 12.06 0 6.12 0 0 Z " fill="#CFE4DD" transform="translate(34,9)"/>
<path d="M0 0 C1.32 0.33 2.64 0.66 4 1 C4.10854617 3.39706123 4.18753157 5.78915838 4.25 8.1875 C4.30027344 9.19780273 4.30027344 9.19780273 4.3515625 10.22851562 C4.42301429 13.89041975 4.11534178 15.82150622 2.109375 18.92578125 C-0.79207174 21.77887054 -1.45677282 21.99063401 -5.625 22.0625 C-6.73875 22.041875 -7.8525 22.02125 -9 22 C-8.01 21.34 -7.02 20.68 -6 20 C-5.34 20.33 -4.68 20.66 -4 21 C-4.33 20.01 -4.66 19.02 -5 18 C-4.67 17.34 -4.34 16.68 -4 16 C-5.32 15.67 -6.64 15.34 -8 15 C-6.35 15 -4.7 15 -3 15 C-3 10.38 -3 5.76 -3 1 C-2.67 1 -2.34 1 -2 1 C-1.67 4.63 -1.34 8.26 -1 12 C-0.01 11.67 0.98 11.34 2 11 C2.33 8.03 2.66 5.06 3 2 C2.01 2 1.02 2 0 2 C0 1.34 0 0.68 0 0 Z " fill="#69837F" transform="translate(67,15)"/>
<path d="M0 0 C0.12375 0.639375 0.2475 1.27875 0.375 1.9375 C0.58125 2.618125 0.7875 3.29875 1 4 C1.66 4.33 2.32 4.66 3 5 C3.33 4.01 3.66 3.02 4 2 C9.5 1.63333333 9.5 1.63333333 11.875 3.375 C13 5 13 5 13 7 C5.97381022 8.5056121 -0.89452919 7.64057643 -8 7 C-7.44369726 4.25254567 -7.2332666 3.21771549 -5.125 1.25 C-3 0 -3 0 0 0 Z " fill="#3A5C58" transform="translate(44,15)"/>
<path d="M0 0 C0.33 0 0.66 0 1 0 C1.33 7.26 1.66 14.52 2 22 C3.65 22.33 5.3 22.66 7 23 C6.01 25.475 6.01 25.475 5 28 C3.35 28 1.7 28 0 28 C0 18.76 0 9.52 0 0 Z " fill="#DDEAE5" transform="translate(2,20)"/>
<path d="M0 0 C1.32 0.66 2.64 1.32 4 2 C4.99 1.34 5.98 0.68 7 0 C7.99 0.66 8.98 1.32 10 2 C9.34 3.32 8.68 4.64 8 6 C7.01 6 6.02 6 5 6 C5 5.34 5 4.68 5 4 C4.34 4 3.68 4 3 4 C2.67 4.99 2.34 5.98 2 7 C0.68 6.01 -0.64 5.02 -2 4 C-1.34 2.68 -0.68 1.36 0 0 Z " fill="#CFD7D4" transform="translate(64,9)"/>
<path d="M0 0 C2.9375 0.75 2.9375 0.75 6 2 C6.875 4.125 6.875 4.125 7 6 C-0.625 7.25 -0.625 7.25 -4 5 C-2.68 3.35 -1.36 1.7 0 0 Z " fill="#5A7370" transform="translate(45,31)"/>
<path d="M0 0 C0 0.66 0 1.32 0 2 C0.66 2 1.32 2 2 2 C2.33 3.65 2.66 5.3 3 7 C1.35153231 6.55123384 -0.29373455 6.09069512 -1.9375 5.625 C-2.85402344 5.36976562 -3.77054688 5.11453125 -4.71484375 4.8515625 C-7 4 -7 4 -8 2 C-2.25 0 -2.25 0 0 0 Z " fill="#B3D3C5" transform="translate(32,29)"/>
<path d="M0 0 C2.64 0 5.28 0 8 0 C8 1.65 8 3.3 8 5 C6.02 5 4.04 5 2 5 C2 4.01 2 3.02 2 2 C1.34 2 0.68 2 0 2 C0 1.34 0 0.68 0 0 Z " fill="#4C6B64" transform="translate(51,22)"/>
<path d="M0 0 C0.99 0.33 1.98 0.66 3 1 C2.34 1 1.68 1 1 1 C1.33 2.32 1.66 3.64 2 5 C-2.62 5 -7.24 5 -12 5 C-12 4.67 -12 4.34 -12 4 C-10.88625 3.855625 -9.7725 3.71125 -8.625 3.5625 C-5.17857953 3.21627965 -5.17857953 3.21627965 -3 2 C-2.34 2.33 -1.68 2.66 -1 3 C-0.67 2.01 -0.34 1.02 0 0 Z " fill="#325250" transform="translate(48,17)"/>
<path d="M0 0 C1.5625 1.25 1.5625 1.25 3 3 C2.6875 5.1875 2.6875 5.1875 2 7 C0.02 6.34 -1.96 5.68 -4 5 C-2.68 3.35 -1.36 1.7 0 0 Z " fill="#5D736F" transform="translate(52,1)"/>
<path d="M0 0 C0.99 0.66 1.98 1.32 3 2 C3 3.32 3 4.64 3 6 C3.66 6 4.32 6 5 6 C5 6.66 5 7.32 5 8 C2 7 2 7 0 4 C-1.65 4.66 -3.3 5.32 -5 6 C-3.35 4.02 -1.7 2.04 0 0 Z " fill="#4D6F6B" transform="translate(42,12)"/>
<path d="M0 0 C0.99 0.33 1.98 0.66 3 1 C3 2.65 3 4.3 3 6 C2.01 6 1.02 6 0 6 C-0.66 4.68 -1.32 3.36 -2 2 C-1.34 1.34 -0.68 0.68 0 0 Z " fill="#C8D1CE" transform="translate(64,9)"/>
<path d="M0 0 C0.66 0.99 1.32 1.98 2 3 C1.67 3.66 1.34 4.32 1 5 C-1.9375 5.75 -1.9375 5.75 -5 6 C-5.66 5.34 -6.32 4.68 -7 4 C-6.01 3.67 -5.02 3.34 -4 3 C-3.67 2.34 -3.34 1.68 -3 1 C-2.34 1.33 -1.68 1.66 -1 2 C-0.67 1.34 -0.34 0.68 0 0 Z " fill="#D8E9E5" transform="translate(40,32)"/>
<path d="M0 0 C0.66 0.33 1.32 0.66 2 1 C1.25 5.75 1.25 5.75 -1 8 C-1 7.34 -1 6.68 -1 6 C-1.66 6 -2.32 6 -3 6 C-3 5.34 -3 4.68 -3 4 C-2.34 4 -1.68 4 -1 4 C-1.33 3.01 -1.66 2.02 -2 1 C-1.34 0.67 -0.68 0.34 0 0 Z " fill="#B3D0C2" transform="translate(19,17)"/>
<path d="M0 0 C1.32 0 2.64 0 4 0 C4 1.65 4 3.3 4 5 C2.02 5 0.04 5 -2 5 C-1.34 4.01 -0.68 3.02 0 2 C0 1.34 0 0.68 0 0 Z " fill="#345250" transform="translate(59,31)"/>
<path d="M0 0 C0 1.32 0 2.64 0 4 C-2.97 3.67 -5.94 3.34 -9 3 C-9 2.67 -9 2.34 -9 2 C-2.25 0 -2.25 0 0 0 Z " fill="#618983" transform="translate(55,28)"/>
<path d="M0 0 C0.66 0 1.32 0 2 0 C2.33 0.99 2.66 1.98 3 3 C0 5 0 5 -4 5 C-4 4.34 -4 3.68 -4 3 C-2.68 2.34 -1.36 1.68 0 1 C0 0.67 0 0.34 0 0 Z " fill="#52706E" transform="translate(57,31)"/>
<path d="M0 0 C0.33 0 0.66 0 1 0 C1 1.65 1 3.3 1 5 C0.67 5 0.34 5 0 5 C0 3.35 0 1.7 0 0 Z " fill="#C2C3C1" transform="translate(42,24)"/>
<path d="" fill="#C4C0C0" transform="translate(0,0)"/>
<path d="" fill="#C4C5C4" transform="translate(0,0)"/>
<path d="" fill="#BCB5B5" transform="translate(0,0)"/>
</svg>
